<svg width="34" height="37" viewBox="0 0 34 37" fill="none" xmlns="http://www.w3.org/2000/svg">
<path d="M31.7452 26.1431C32.2212 26.1437 32.679 26.3259 33.0251 26.6526C33.3712 26.9794 33.5794 27.4259 33.6073 27.9011C33.6352 28.3762 33.4806 28.8441 33.1751 29.209C32.8697 29.574 32.4363 29.8086 31.9637 29.8648L31.7452 29.8779H1.86737C1.39141 29.8773 0.933623 29.6951 0.587533 29.3684C0.241442 29.0416 0.0331738 28.5951 0.00528069 28.1199C-0.0226124 27.6448 0.131975 27.1769 0.437458 26.812C0.742941 26.447 1.17626 26.2124 1.64888 26.1562L1.86737 26.1431H31.7452ZM31.7452 13.0716C32.2405 13.0716 32.7155 13.2683 33.0657 13.6185C33.4159 13.9687 33.6126 14.4437 33.6126 14.9389C33.6126 15.4342 33.4159 15.9092 33.0657 16.2594C32.7155 16.6096 32.2405 16.8063 31.7452 16.8063H1.86737C1.37211 16.8063 0.897138 16.6096 0.546939 16.2594C0.19674 15.9092 0 15.4342 0 14.9389C0 14.4437 0.19674 13.9687 0.546939 13.6185C0.897138 13.2683 1.37211 13.0716 1.86737 13.0716H31.7452ZM31.7452 0C32.2405 0 32.7155 0.19674 33.0657 0.546939C33.4159 0.897138 33.6126 1.37211 33.6126 1.86737C33.6126 2.36262 33.4159 2.83759 33.0657 3.18779C32.7155 3.53799 32.2405 3.73473 31.7452 3.73473H1.86737C1.37211 3.73473 0.897138 3.53799 0.546939 3.18779C0.19674 2.83759 0 2.36262 0 1.86737C0 1.37211 0.19674 0.897138 0.546939 0.546939C0.897138 0.19674 1.37211 0 1.86737 0H31.7452Z" fill="black"/>
</svg>
